<svg width="24" height="24" viewBox="0 0 24 24" fill="none" xmlns="http://www.w3.org/2000/svg">
    <path d="M2.96735 6.38373C2.33676 7.30066 1.99917 8.38728 1.99915 9.50009C1.99915 11.8001 3.49926 13.5001 4.99938 15.0001L10.5078 20.3322C10.6968 20.5438 10.9288 20.7128 11.1881 20.8279C11.4475 20.943 11.7284 21.0016 12.0122 20.9998C12.296 20.9981 12.5761 20.9359 12.834 20.8175C13.0919 20.6991 13.3217 20.5272 13.508 20.3132L19.0005 15.0001C20.5006 13.5001 22.0007 11.7901 22.0007 9.50009C22.006 8.38484 21.6715 7.29442 21.0417 6.37396C20.4119 5.45351 19.5168 4.74667 18.4753 4.34753C17.4338 3.94839 16.2955 3.87587 15.2118 4.13964C14.1281 4.40341 13.1504 4.99095 12.4089 5.82406C12.3566 5.88007 12.2932 5.92473 12.2229 5.95526C12.1525 5.98579 12.0766 6.00154 11.9999 6.00154C11.9232 6.00154 11.8473 5.98579 11.777 5.95526C11.7066 5.92473 11.6433 5.88007 11.5909 5.82406C10.8471 4.99633 9.86962 4.41369 8.78768 4.15309C7.70574 3.89248 6.5702 3.96618 5.53103 4.36444C4.49185 4.76271 3.59794 5.4668 2.96735 6.38373Z" stroke="#E8869E" stroke-width="2" stroke-linecap="round"/>
</svg>
