<svg width="24" height="24" viewBox="0 0 24 24" fill="none" xmlns="http://www.w3.org/2000/svg">
<path d="M17.5005 6.49951H17.5105M6.99967 1.99915H17.0005C19.7621 1.99915 22.0009 4.2379 22.0009 6.99955V17.0003C22.0009 19.762 19.7621 22.0007 17.0005 22.0007H6.99967C4.23802 22.0007 1.99927 19.762 1.99927 17.0003V6.99955C1.99927 4.2379 4.23802 1.99915 6.99967 1.99915ZM16.0001 11.3702C16.1235 12.2025 15.9814 13.0525 15.5938 13.7994C15.2063 14.5463 14.5931 15.1519 13.8415 15.5302C13.09 15.9085 12.2382 16.0402 11.4075 15.9065C10.5768 15.7728 9.80936 15.3806 9.21439 14.7856C8.61942 14.1907 8.22721 13.4232 8.09353 12.5925C7.95985 11.7618 8.09153 10.9101 8.46982 10.1585C8.84811 9.40689 9.45376 8.79373 10.2006 8.4062C10.9475 8.01867 11.7975 7.87651 12.6298 7.99993C13.4788 8.12582 14.2648 8.52143 14.8717 9.12832C15.4786 9.73522 15.8742 10.5212 16.0001 11.3702Z" stroke="white" stroke-width="2" stroke-linecap="round"/>
</svg>
